# xmcd
#
# Track frame offsets:
# 150
# 16126
# 28436
# 43549
# 54610
# 67512
# 82856
# 100676
# 112719
# 131253
#
# Disc length: 2095 seconds
#
#
# Revision: 0
# Processed by: cddbd v1.5.1PL2 Copyright (c) Steve Scherf et al.
# Submitted via: FreeRIP 2.944 
#
DISCID=69082d0a
DTITLE=Waylon Jennings It's only rock and roll - It's only rock and roll
DYEAR=1983
DGENRE=Country rock
TTITLE0=It's only rock and roll
TTITLE1=Living legends (a dyin' breed)
TTITLE2=Breakin' down
TTITLE3=Let her do the walking
TTITLE4=Mental revenge
TTITLE5=Lucille (you won't do your daddy's will)
TTITLE6=Angel eyes (angel eyes)
TTITLE7=No middle ground
TTITLE8=Loves lagalities
TTITLE9=Medley of hits
EXTD=
EXTT0=
EXTT1=
EXTT2=
EXTT3=
EXTT4=
EXTT5=
EXTT6=
EXTT7=
EXTT8=
EXTT9=
PLAYORDER=
